PathFileType	4	(X/Y/Z)	21_coords_data.trc
DataRate	CameraRate	NumFrames	NumMarkers	Units	OrigDataRate	OrigDataStartFrame	OrigNumFrames
30.0	30.0	7	21	m	30.0	61	71
Frame#	Time	THUMB_TIP	THUMB_IP	THUMB_MCP	THUMB_CMC	INDEX_TIP	INDEX_DIP	INDEX_PIP	INDEX_MCP	MIDDLE_TIP	MIDDLE_DIP	MIDDLE_PIP	MIDDLE_MCP	RING_TIP	RING_DIP	RING_PIP	RING_MCP	PINKY_TIP	PINKY_DIP	PINKY_PIP	PINKY_MCP	WRIST
X1	Y1	Z1	X2	Y2	Z2	X3	Y3	Z3	X4	Y4	Z4	X5	Y5	Z5	X6	Y6	Z6	X7	Y7	Z7	X8	Y8	Z8	X9	Y9	Z9	X10	Y10	Z10	X11	Y11	Z11	X12	Y12	Z12	X13	Y13	Z13	X14	Y14	Z14	X15	Y15	Z15	X16	Y16	Z16	X17	Y17	Z17	X18	Y18	Z18	X19	Y19	Z19	X20	Y20	Z20	X21	Y21	Z21
59	1.9999999999999911	0.5131920406946405	0.05359284026806743	-0.13574970287970822	0.5022354098963365	0.03803386476825332	-0.1228706298173392	0.48542366208176446	0.016904925632112655	-0.10738666823121745	0.47508809036275723	-0.01225294297565005	-0.07524814531099436	0.5675835444989988	0.06958639196615002	-0.12833032702487335	0.5523280681850418	0.06811009802034917	-0.11868195935879175	0.5314727969930636	0.06546902631774676	-0.10489456523333213	0.4991086182884845	0.04506122492150366	-0.08619382532953249	0.5847280943932172	0.06426307749472038	-0.10708714737588929	0.5695594041223803	0.0654619713138398	-0.09726505548679085	0.5452325367298627	0.06446530901835423	-0.08124570040814846	0.5096709999086122	0.04169662845562205	-0.06664733730322764	0.5892303171140729	0.05512480077944981	-0.08956217579677445	0.5744072738381287	0.05442813161213467	-0.07932537746376031	0.5535551251080248	0.051962675257931856	-0.06593547838635311	0.5201840517390808	0.03224963583324181	-0.05442511901554403	0.59168291508608	0.04487768792001989	-0.06275018660038661	0.5766786752621225	0.03802828037045469	-0.05817215170262474	0.5577448086801272	0.03044666588708389	-0.05318819372921174	0.5257231291609639	0.014634045379335214	-0.048142747817310316	0.4622830810018609	-0.023011742144276925	-0.051989820119430985
60	2.0333333333333243	0.5133104558372426	0.05357196499644479	-0.13568828539326297	0.5023175813573119	0.03802403134472576	-0.12282677421338059	0.4854601037713902	0.016922884770110835	-0.10735463594238631	0.4750928391191196	-0.012259440586273374	-0.07524853511366658	0.5676118804973944	0.06951554642241664	-0.12824345718258492	0.5523478240804869	0.06808136020271804	-0.11860231142138568	0.5314817727851087	0.06547423946944675	-0.10482476962973103	0.4990819339492888	0.04509569908792921	-0.08615389312829802	0.5847249361527795	0.06419719933934998	-0.10701104832230085	0.5695573480054326	0.06542846842301486	-0.09719125981968685	0.5452308405808995	0.06446836266707645	-0.08116912564656367	0.5096404420955347	0.041731668548203094	-0.06659125895771895	0.5892250181259002	0.05508188311277684	-0.0894878861138031	0.5744020923054577	0.05440305757146391	-0.07924971899238331	0.5535461168924996	0.05197207072222221	-0.06585947733986236	0.5201544757369189	0.03228311290613084	-0.05436756387633937	0.5916936611263509	0.0448344287278436	-0.06269878513221042	0.5766838870874972	0.038000495355347	-0.05811576888056724	0.5577465227630625	0.03042837416867772	-0.05313066786072623	0.5257031389930896	0.01466130208022387	-0.048080475257691185	0.46228308100186094	-0.023011742144276925	-0.051989820119430985
61	2.0666666666666575	0.5134371809544	0.05350456210364196	-0.13566384746468513	0.5023995731747135	0.03797761019189816	-0.12281530751525126	0.48549973449057027	0.016900947482958006	-0.10735601446855889	0.4751035357029502	-0.012266843644077374	-0.07524606256049887	0.5676487805233116	0.06944429586565659	-0.12819942944089519	0.5523778760868606	0.0680304672732025	-0.11856612437960179	0.5315040422339695	0.06544014771906459	-0.10479720510867321	0.49906513169521377	0.045112266869831275	-0.08613895124508833	0.5847452753737287	0.06403612058529506	-0.10701769231803299	0.5695830745401173	0.0653087648459093	-0.09719485960709068	0.5452604542728423	0.06440594065884142	-0.08116349653899213	0.5096283845262585	0.04174560504435931	-0.06656854136901563	0.5892391693158844	0.054964283928656044	-0.08947316009770065	0.574419859331238	0.05431618744868971	-0.07922776979124496	0.5535601486020209	0.05193980597785397	-0.0658335449761071	0.5201458209723286	0.0322935838841204	-0.05433443629328774	0.5917287643434064	0.044743754941207525	-0.06268420592434046	0.5767070162510561	0.037941040202864595	-0.05809398191687573	0.5577644082887508	0.03039037606237882	-0.05309627307941939	0.5256993616248281	0.014664894292497177	-0.04805390691405792	0.4622830810018609	-0.023011742144276925	-0.051989820119430985
63	2.100000000000002	0.513604556003555	0.053412688731798386	-0.13563567378269809	0.5025166310993356	0.03790765300555443	-0.12280400247899453	0.48557681427277233	0.016855179852900637	-0.10735550805269939	0.47512697637261114	-0.012293088277946507	-0.07524523940180519	0.5677474477848177	0.06927394800380693	-0.1281842176001614	0.5524666300606165	0.0678949507209835	-0.11856158925995704	0.5315869029299551	0.06534603017925544	-0.10479387950048433	0.499098533680309	0.045094217491228106	-0.08613895949669698	0.5848095500160013	0.06376517817679361	-0.1070522111366422	0.5696572927400348	0.0651067670195371	-0.09722321124754135	0.5453429303384139	0.06428872343738545	-0.08117478030553515	0.5096561239562984	0.04172708868284691	-0.06656066355329149	0.5892985401717815	0.05475990091034533	-0.08947227342894981	0.5744832722788085	0.05416050225054181	-0.07921807631235062	0.5536208765239599	0.05185787233500172	-0.06581515432346569	0.5201731772605891	0.03226550930913474	-0.05432117507127632	0.5918036297095592	0.044557922218045665	-0.06271211277849792	0.5767757020899198	0.037781474897974676	-0.05810330022240717	0.5578154632912592	0.03028887101857103	-0.053085108236830214	0.5257175628172478	0.014632454888410251	-0.048036854071308754	0.46228308100186094	-0.023011742144276925	-0.051989820119430985
64	2.1333333333333355	0.5137694166718694	0.05330492616216065	-0.1356221290465589	0.5026325050564249	0.03782270461093962	-0.1228053425730046	0.48565161465649964	0.01679827495524122	-0.10736375201767917	0.47515116473952185	-0.012323294500531157	-0.07524577038785582	0.5678464022995813	0.06910626308369527	-0.12818365901346934	0.5525561160691596	0.0677569078495397	-0.11857187523293042	0.531672075539976	0.06524588162751643	-0.10480374422368566	0.49913770152128245	0.04506810941781059	-0.08614876875157676	0.5848777455452302	0.06348041037063767	-0.10710476116209589	0.5697359964372595	0.06488993411689614	-0.09726907731398451	0.5454292261542185	0.0641618903879535	-0.08120481820451333	0.5096890706573505	0.04170219972934852	-0.06656407021885793	0.5893600397499055	0.05454727637773482	-0.0894821153740224	0.574548976967624	0.05399877099907979	-0.07921899883425218	0.5536839296044054	0.05177240730875443	-0.06580732174862844	0.5202036974207849	0.03223371770938277	-0.0543166953222636	0.5918796020333884	0.04436667515529924	-0.06275075817181616	0.5768451770450332	0.03762034241239942	-0.05811901338268988	0.5578678429171421	0.030187166706313495	-0.053077118171479004	0.5257374611200855	0.014597929464398862	-0.048027593561114246	0.4622830810018609	-0.023011742144276925	-0.051989820119430985
65	2.1666666666666687	0.5139230381832173	0.05318424348928408	-0.13562684369729366	0.5027407032176174	0.03772478987184902	-0.12282213055847246	0.48571843006965215	0.016732514851883096	-0.10738235703804253	0.4751733262091399	-0.012354770741912047	-0.07524794244315683	0.5679350831273691	0.06895450492879762	-0.1281970450333089	0.5526364859537023	0.06762803743129764	-0.11859530516514179	0.5317499295615327	0.06514969497845213	-0.1048250686470879	0.49917655364463803	0.04503802165740278	-0.08616677634569939	0.5849423406020426	0.06319716623938443	-0.10717431976577405	0.5698113807237636	0.06466970861978982	-0.09733126779497656	0.5455110594034822	0.06403385565518649	-0.08125334427424513	0.5097220433858769	0.04167495499417562	-0.06657772453528235	0.589415479946716	0.05433877584937674	-0.08950408264836854	0.5746091954482342	0.05384165560614418	-0.07923145830919462	0.5537422352026997	0.05169134896616223	-0.06581035066245636	0.5202322085750637	0.03220367352219233	-0.0543199435675957	0.591949892576351	0.04418190150201173	-0.06280142204004277	0.5769085385318402	0.03747105116810734	-0.05814071862707906	0.557916207809688	0.030095630450636235	-0.05307055472630698	0.5257558165363629	0.014566776748649035	-0.048026014425256947	0.46228308100186083	-0.023011742144276925	-0.051989820119430985
66	2.200000000000002	0.5140567176309948	0.05305361608873638	-0.13565347456142382	0.5028347508221727	0.03761592252580559	-0.12285718297367304	0.48577156760842743	0.01666016952822258	-0.1074129544426504	0.47519070401823854	-0.012384832860233397	-0.07525205952443631	0.5680029937713167	0.06883194598263198	-0.12822370438491973	0.552697953661046	0.06752004574098402	-0.1186302344715374	0.5318108929015775	0.06506746420605469	-0.10485615121185021	0.49920901844737153	0.04500804211978349	-0.08619138596722403	0.5849959414105692	0.0629307991671274	-0.10725993468698725	0.5698757231785704	0.0644575334468197	-0.09740863614030104	0.5455801988321932	0.06391304965450106	-0.08132011277317694	0.509749869760883	0.041649375855168924	-0.06660059278784602	0.5894567433515858	0.05414676867974699	-0.08953960301197453	0.574656205131568	0.053699808750046096	-0.07925639849105615	0.5537887474478397	0.051622648681068584	-0.06582454847455965	0.5202535510205601	0.03218084597725013	-0.054329865259717613	0.5920077458496298	0.0440155132980139	-0.062865376977632	0.5769589481497495	0.03734703811148776	-0.058168023842646494	0.5579552599693556	0.03002464379479619	-0.053063673148068036	0.525769403260567	0.014544450154614252	-0.048032005056490856	0.4622830810018609	-0.023011742144276925	-0.051989820119430985
